<svg width="180" height="180" viewBox="0 0 180 180" fill="none" xmlns="http://www.w3.org/2000/svg">
<g clip-path="url(#clip0_11_13)">
<path d="M76.3237 172.934C76.9824 172.986 77.3465 171.958 76.8481 171.358L76.7985 171.111C76.8051 171.091 76.8116 171.071 76.8182 171.051C77.4845 169.055 79.7424 169.069 80.4029 171.068C80.9892 172.842 81.7357 174.619 81.9195 176.495C82.0019 177.323 81.9648 178.167 81.8186 178.98C83.1924 175.209 83.9153 171.092 83.9153 166.952C83.9153 165.911 83.87 164.871 83.7773 163.833C83.7011 162.984 83.596 162.141 83.4601 161.305C82.7248 156.787 81.1327 152.483 78.8362 148.889C77.7323 148.131 76.8116 146.945 76.2555 145.525C76.0557 145.012 75.8992 144.461 75.825 143.9C75.9507 143.92 76.2988 141.516 76.204 141.369C76.3791 141.035 76.6925 140.869 76.8837 140.543C77.8347 138.923 79.145 139.206 79.829 141.408C81.2902 142.334 81.3043 143.871 80.4077 145.349C79.8373 146.289 79.7589 147.561 79.2585 148.568C79.31 148.651 79.3635 148.731 79.415 148.814C80.3592 150.335 81.1759 151.971 81.8644 153.689C81.6698 151.78 81.957 149.479 82.4468 147.996C83.0042 146.306 84.0491 144.883 84.9693 143.423C86.0745 141.668 88.341 142.434 88.5357 144.658C88.5376 144.68 88.5394 144.701 88.5412 144.723C88.4045 144.819 88.2707 144.922 88.1399 145.031C87.3938 145.651 87.6517 147.104 88.5356 147.275L88.5556 147.279C88.5062 147.898 88.4218 148.511 88.2982 149.114C89.4786 154.85 86.9301 156.939 83.2912 157.033C83.2109 157.084 83.1326 157.136 83.0523 157.185C83.421 158.49 83.7155 159.827 83.9338 161.183C84.1295 162.382 84.2654 163.593 84.3416 164.809C84.4364 166.343 84.4281 167.886 84.3251 169.418L84.3313 169.363C84.5929 167.676 85.322 166.1 86.3807 165.008C87.9578 163.38 90.1859 162.781 91.8873 161.473C92.7063 160.843 93.7557 161.657 93.6128 162.85L93.6058 162.907C93.3525 163.036 93.1054 163.186 92.8664 163.355C92.7298 163.451 92.5959 163.554 92.4651 163.663C91.7191 164.283 91.9769 165.736 92.8608 165.907L92.8809 165.911C92.8953 165.914 92.9076 165.916 92.922 165.919C92.4875 167.215 91.8819 168.419 91.124 169.457C90.3859 174.464 87.2157 174.939 83.8247 173.48H83.8226C83.4519 175.509 82.9102 177.492 82.214 179.381H76.4677C76.447 179.3 76.4285 179.218 76.41 179.137C76.9414 179.179 77.4769 179.14 78 179.018C77.5737 178.361 77.1473 177.699 76.721 177.041C76.7107 177.028 76.7024 177.015 76.6942 177.002C76.478 176.666 76.2596 176.332 76.0434 175.996L76.0433 175.995C76.0297 174.963 76.1284 173.933 76.3237 172.934Z" fill="#F2F2F2"/>
<path d="M0 179.523C0 179.788 0.169018 180 0.379492 180H128.982C129.193 180 129.362 179.788 129.362 179.523C129.362 179.259 129.193 179.046 128.982 179.046H0.379492C0.169018 179.046 0 179.259 0 179.523Z" fill="#CCCCCC"/>
<path d="M173.71 179.894H107.844C104.376 179.894 101.554 176.348 101.554 171.991V7.90275C101.554 3.54524 104.376 0 107.844 0H173.71C177.178 0 180 3.54524 180 7.90275V171.991C180 176.348 177.178 179.894 173.71 179.894ZM107.844 0.801308C104.723 0.801308 102.192 3.98064 102.192 7.90255V171.991C102.192 175.913 104.723 179.092 107.844 179.092H173.71C176.832 179.092 179.362 175.913 179.362 171.991V60.3805C179.362 27.4758 158.132 0.801308 131.943 0.801308H107.844Z" fill="#E6E6E6"/>
<path d="M120.262 80.9795C124.489 80.9795 127.915 76.6744 127.915 71.3638C127.915 66.0532 124.489 61.7481 120.262 61.7481C116.035 61.7481 112.609 66.0532 112.609 71.3638C112.609 76.6744 116.035 80.9795 120.262 80.9795Z" fill="#E6E6E6"/>
<path d="M161.292 80.9795C165.519 80.9795 168.945 76.6744 168.945 71.3638C168.945 66.0532 165.519 61.7481 161.292 61.7481C157.065 61.7481 153.639 66.0532 153.639 71.3638C153.639 76.6744 157.065 80.9795 161.292 80.9795Z" fill="#E6E6E6"/>
<path d="M140.777 80.9795C145.004 80.9795 148.43 76.6744 148.43 71.3638C148.43 66.0532 145.004 61.7481 140.777 61.7481C136.55 61.7481 133.124 66.0532 133.124 71.3638C133.124 76.6744 136.55 80.9795 140.777 80.9795Z" fill="#E6E6E6"/>
<path d="M120.262 108.625C124.489 108.625 127.915 104.32 127.915 99.0089C127.915 93.6983 124.489 89.3932 120.262 89.3932C116.035 89.3932 112.609 93.6983 112.609 99.0089C112.609 104.32 116.035 108.625 120.262 108.625Z" fill="#E6E6E6"/>
<path d="M161.292 108.625C165.519 108.625 168.945 104.32 168.945 99.0089C168.945 93.6983 165.519 89.3932 161.292 89.3932C157.065 89.3932 153.639 93.6983 153.639 99.0089C153.639 104.32 157.065 108.625 161.292 108.625Z" fill="#E6E6E6"/>
<path d="M140.777 108.625C145.004 108.625 148.43 104.32 148.43 99.0089C148.43 93.6983 145.004 89.3932 140.777 89.3932C136.55 89.3932 133.124 93.6983 133.124 99.0089C133.124 104.32 136.55 108.625 140.777 108.625Z" fill="#E6E6E6"/>
<path d="M120.262 136.27C124.489 136.27 127.915 131.965 127.915 126.654C127.915 121.343 124.489 117.038 120.262 117.038C116.035 117.038 112.609 121.343 112.609 126.654C112.609 131.965 116.035 136.27 120.262 136.27Z" fill="#E6E6E6"/>
<path d="M161.136 163.868C165.362 163.868 168.789 159.562 168.789 154.252C168.789 148.941 165.362 144.636 161.136 144.636C156.909 144.636 153.482 148.941 153.482 154.252C153.482 159.562 156.909 163.868 161.136 163.868Z" fill="#E6E6E6"/>
<path d="M130.682 163.868C140.633 163.868 148.699 159.562 148.699 154.252C148.699 148.941 140.633 144.636 130.682 144.636C120.732 144.636 112.665 148.941 112.665 154.252C112.665 159.562 120.732 163.868 130.682 163.868Z" fill="#E6E6E6"/>
<path d="M161.292 136.27C165.519 136.27 168.945 131.965 168.945 126.654C168.945 121.343 165.519 117.038 161.292 117.038C157.065 117.038 153.639 121.343 153.639 126.654C153.639 131.965 157.065 136.27 161.292 136.27Z" fill="#E6E6E6"/>
<path d="M140.777 136.27C145.004 136.27 148.43 131.965 148.43 126.654C148.43 121.343 145.004 117.038 140.777 117.038C136.55 117.038 133.124 121.343 133.124 126.654C133.124 131.965 136.55 136.27 140.777 136.27Z" fill="#00D4CD"/>
<path d="M142.281 11.2183H69.0864C66.9161 11.2183 65.1513 13.4357 65.1513 16.1625V49.9454C65.1513 52.6723 66.9161 54.8896 69.0864 54.8896H142.281C144.451 54.8896 146.216 52.6723 146.216 49.9454V16.1625C146.216 13.4357 144.451 11.2183 142.281 11.2183Z" fill="white"/>
<path d="M142.281 11.2183H69.0864C66.9161 11.2183 65.1513 13.4357 65.1513 16.1625V49.9454C65.1513 52.6723 66.9161 54.8896 69.0864 54.8896H142.281C144.451 54.8896 146.216 52.6723 146.216 49.9454V16.1625C146.216 13.4357 144.451 11.2183 142.281 11.2183ZM145.802 49.9454C145.802 52.3863 144.224 54.3697 142.281 54.3697H69.0864C67.1437 54.3697 65.5651 52.3863 65.5651 49.9454V16.1625C65.5651 13.7216 67.1437 11.7382 69.0864 11.7382H142.281C144.224 11.7382 145.802 13.7216 145.802 16.1625V49.9454Z" fill="#3F3D56"/>
<path d="M138.21 31.6517H73.1576C72.5412 31.6517 72.0415 32.2795 72.0415 33.054C72.0415 33.8284 72.5412 34.4563 73.1576 34.4563H138.21C138.826 34.4563 139.326 33.8284 139.326 33.054C139.326 32.2795 138.826 31.6517 138.21 31.6517Z" fill="#00D4CD"/>
<path d="M21.6689 72.2865L21.0169 77.1644L26.7985 94.8348L29.9005 92.8311L26.8813 76.2952L26.4474 69.9846L21.6689 72.2865Z" fill="#A0616A"/>
<path d="M28.051 44.8446C28.051 44.8446 25.024 43.0023 22.6751 49.2273C20.3262 55.4524 20.6171 69.1055 20.6171 69.1055C20.6171 69.1055 19.7618 70.1288 20.3047 70.8452C20.8477 71.5616 21.3538 72.6985 20.8 74.0091C20.5081 74.6998 19.8325 76.0511 20.9388 76.435C22.0451 76.8189 27.2202 75.0054 27.2202 75.0054C27.2202 75.0054 29.1553 73.9162 28.0558 73.1827C26.9563 72.4492 28.5048 68.0121 28.5048 68.0121L29.7843 55.1946L28.051 44.8446Z" fill="#00D4CD"/>
<path d="M30.4278 101.586C31.6428 101.117 32.1184 98.6529 31.49 96.0818C30.8616 93.5108 29.3673 91.8065 28.1523 92.2753C26.9372 92.7441 26.4617 95.2084 27.0901 97.7794C27.7185 100.35 29.2128 102.055 30.4278 101.586Z" fill="#A0616A"/>
<path d="M59.0822 177.317L61.9797 176.34L60.3591 161.833L56.0827 163.275L59.0822 177.317Z" fill="#A0616A"/>
<path d="M68.9919 173.888C69.1229 174.049 69.3021 174.649 69.3495 174.871C69.4952 175.553 69.1731 176.255 68.63 176.438L59.6566 179.463C59.2861 179.588 58.9051 179.312 58.8057 178.846L58.7054 178.377C58.7054 178.377 57.9603 177.116 58.5028 175.069C58.5028 175.069 59.9295 176.047 61.1714 173.343L61.4286 172.035L65.7626 174.142L67.8371 173.776C68.291 173.696 68.6638 173.486 68.9919 173.888Z" fill="#2F2E41"/>
<path d="M30.6803 177.234L33.6803 177.233L35.1075 162.694L30.6797 162.695L30.6803 177.234Z" fill="#A0616A"/>
<path d="M40.9588 177.148C41.0522 177.346 41.1015 177.984 41.1015 178.214C41.1015 178.92 40.6456 179.493 40.0833 179.493H30.7925C30.4089 179.493 30.0979 179.102 30.0979 178.62V178.134C30.0979 178.134 29.6383 176.674 30.5845 174.873C30.5845 174.873 31.7606 176.283 33.5179 174.075L34.0361 172.896L37.7874 176.342L39.8666 176.664C40.3215 176.734 40.7248 176.653 40.9588 177.148Z" fill="#2F2E41"/>
<path d="M50.6461 90.63L58.5349 133.353L62.3433 167.873L56.3587 168.898L39.765 110.111L35.9567 168.898L29.156 169.581C29.156 169.581 23.7155 99.8581 26.1637 91.3135L50.6461 90.63Z" fill="#2F2E41"/>
<path d="M60.0362 40.1113L62.758 36.5379L65.8838 17.8407L62.4219 17.3065L57.5193 33.1142L55.0543 38.6396L60.0362 40.1113Z" fill="#A0616A"/>
<path d="M42.4786 58.2972C42.4786 58.2972 45.026 64.1987 49.754 60.7098C54.4821 57.221 59.4826 43.485 59.4826 43.485C59.4826 43.485 60.4811 39.9932 61.5255 39.3006C62.076 38.9356 63.4925 38.542 62.7493 37.443C62.0062 36.3441 56.6619 33.9416 56.6619 33.9416C56.6619 33.9416 54.5742 33.4754 55.1553 34.8586C55.7363 36.2419 53.828 35.385 54.0207 36.849C54.2133 38.313 52.4702 38.8175 52.4702 38.8175L42.4786 58.2972Z" fill="#00D4CD"/>
<path d="M66.9603 15.1996C67.5911 12.6295 67.1179 10.1645 65.9034 9.6939C64.6888 9.22331 63.1928 10.9253 62.562 13.4954C61.9312 16.0655 62.4044 18.5305 63.619 19.0011C64.8335 19.4717 66.3295 17.7697 66.9603 15.1996Z" fill="#A0616A"/>
<path d="M42.8168 37.8512H35.3688L35.0674 40.8017C35.0674 40.8017 25.6743 44.0471 25.9091 45.8174C26.1439 47.5877 27.5529 77.0922 27.5529 77.0922L26.3787 91.8445C26.3787 91.8445 47.5134 103.056 50.801 89.7792L49.1572 74.4368C49.1572 74.4368 53.1493 48.1778 52.21 46.9976C51.2707 45.8174 43.5213 41.0967 43.5213 41.0967L42.8168 37.8512Z" fill="#00D4CD"/>
<path d="M38.4905 37.888C42.1826 37.888 45.1756 34.1275 45.1756 29.4886C45.1756 24.8498 42.1826 21.0893 38.4905 21.0893C34.7985 21.0893 31.8055 24.8498 31.8055 29.4886C31.8055 34.1275 34.7985 37.888 38.4905 37.888Z" fill="#A0616A"/>
<path d="M43.4415 26.0336C44.2956 25.9429 45.1497 25.8521 46.0039 25.7615C45.7103 25.5922 45.4045 25.4112 45.2089 25.0882C45.0133 24.7652 44.9728 24.255 45.2091 23.9783C45.4852 23.6549 45.9425 23.8262 46.2444 24.1111C46.0782 23.0209 45.5603 22.0221 44.8338 21.3906C43.9463 20.6192 41.7508 21.539 40.6809 21.3619C39.4464 21.1576 39.2923 19.8352 38.0578 19.6309C37.5925 19.5539 37.0689 19.4958 36.703 19.8651C36.2972 20.2747 36.2516 21.0491 35.8936 21.5239C35.3824 22.2017 34.5062 22.0017 33.7787 22.1924C32.7483 22.4626 31.9716 23.5977 31.6128 24.8411C31.2541 26.0844 31.2409 27.4368 31.2317 28.7593C31.2215 30.2414 31.2178 31.9573 32.071 32.9809C32.5907 33.6046 34.0067 35.7443 34.1597 36.6266C34.2684 37.2533 38.6986 38.0165 39.6588 37.9817L42.9315 36.6266C43.2531 34.8472 42.7211 31.327 41.9564 29.7757C42.2082 30.1936 43.3728 31.4517 43.5508 30.9776C43.7289 30.5036 43.6481 29.0178 43.8697 28.5737C44.1495 28.0133 42.9168 26.0893 43.4415 26.0336Z" fill="#2F2E41"/>
</g>
<defs>
<clipPath id="clip0_11_13">
<rect width="180" height="180" fill="white"/>
</clipPath>
</defs>
</svg>
