<svg width="55" height="36" viewBox="0 0 55 36" fill="none" xmlns="http://www.w3.org/2000/svg">
<path d="M36.3082 0.405396H18.2296C8.24508 0.405396 0.151062 8.28273 0.151062 18C0.151062 27.7172 8.24508 35.5946 18.2296 35.5946H36.3082C46.2928 35.5946 54.3868 27.7172 54.3868 18C54.3868 8.28273 46.2928 0.405396 36.3082 0.405396ZM6.17725 18C6.17725 11.5174 11.5678 6.27026 18.2296 6.27026C24.8906 6.27026 30.282 11.5165 30.282 18C30.282 24.4826 24.8915 29.7297 18.2296 29.7297C11.5687 29.7297 6.17725 24.4835 6.17725 18ZM36.3082 29.7297H31.7034C37.8441 23.0531 37.8459 12.9489 31.7034 6.27026H36.3082C42.9691 6.27026 48.3606 11.5165 48.3606 18C48.3606 24.4825 42.9701 29.7297 36.3082 29.7297Z" fill="white"/>
</svg>
